<!-- Generated by IcoMoon.io -->
<svg version="1.1"
  xmlns="http://www.w3.org/2000/svg" width="32" height="32" viewBox="0 0 32 32">
  <title>boon</title>
  <path fill="#ffffff" d="M27.259 7.704c-0.35 0-0.687 0.044-1.016 0.115-0.146-2.158-1.925-3.868-4.12-3.868-0.492 0-0.958 0.101-1.395 0.258-1.363-2.167-3.759-3.616-6.507-3.616-4.174 0-7.553 3.327-7.68 7.47-0.556-0.229-1.163-0.359-1.801-0.359-2.618 0-4.741 2.123-4.741 4.741 0 2.551 2.018 4.615 4.543 4.719l1.901-1.901 1.922 1.922h0.898l1.921-1.922 1.921 1.922h0.898l1.921-1.922 1.921 1.922h0.898l1.921-1.922 1.921 1.922h0.898l1.921-1.922 1.915 1.915c2.587-0.034 4.677-2.137 4.677-4.734 0-2.618-2.123-4.741-4.741-4.741zM25.481 16.671l-1.7 1.7h-1.491l-1.625-1.625-1.625 1.625h-1.491l-1.625-1.625-1.625 1.625h-1.491l-1.625-1.625-1.625 1.625h-1.49l-1.625-1.625-1.626 1.625h-0.078l3.141 13.037h16.148l3.23-13.037h-0.078l-1.7-1.7zM10.667 30.222l-2.469-10.667h1.185l2.469 10.667h-1.185zM13.037 30.222l-1.259-10.667h1.185l1.259 10.667h-1.185zM16.593 30.222h-1.185v-10.667h1.185v10.667zM17.778 30.222l1.259-10.667h1.185l-1.259 10.667h-1.185zM21.333 30.222h-1.185l2.444-10.667h1.185l-2.444 10.667z"></path>
</svg>
